<svg width="129" height="51" viewBox="0 0 129 51" fill="none" xmlns="http://www.w3.org/2000/svg">
<g clip-path="url(#clip0_2973_32248)">
<path d="M11.6783 30.119H19.3204V35.3078H4.77161V30.3736L11.9021 22.6381H4.83556V17.4491H19.0646V22.3832L11.6783 30.119ZM39.0758 26.1716C39.0758 26.6596 39.0439 27.1478 38.9798 27.6359H27.1171C27.181 28.6121 27.4475 29.3444 27.9165 29.8324C28.4067 30.2992 29.0249 30.5329 29.7711 30.5329C30.8155 30.5329 31.5616 30.0658 32.0093 29.1321H38.6922C38.415 30.363 37.8714 31.4665 37.0614 32.4428C36.2727 33.3979 35.2708 34.1511 34.0558 34.7029C32.8407 35.2549 31.4976 35.5307 30.0268 35.5307C28.2575 35.5307 26.6801 35.1593 25.2944 34.4165C23.9302 33.6737 22.8537 32.6125 22.065 31.2331C21.2976 29.8536 20.914 28.2302 20.914 26.3626C20.914 24.495 21.2976 22.8821 22.065 21.5237C22.8324 20.1443 23.8983 19.0832 25.2625 18.3404C26.6482 17.5976 28.2362 17.2262 30.0268 17.2262C31.7961 17.2262 33.3628 17.587 34.7272 18.3086C36.0915 19.0301 37.1574 20.07 37.9248 21.4284C38.6922 22.7654 39.0758 24.3464 39.0758 26.1716ZM32.6807 24.6118C32.6807 23.8477 32.425 23.2534 31.9133 22.8289C31.4018 22.3832 30.7623 22.1604 29.9949 22.1604C29.2275 22.1604 28.5986 22.3727 28.1084 22.7971C27.618 23.2004 27.2982 23.8052 27.149 24.6118H32.6807ZM47.5881 30.119H55.2301V35.3078H40.6814V30.3736L47.8119 22.6381H40.7454V17.4491H54.9744V22.3832L47.5881 30.119ZM68.4306 29.9917V35.3078H65.7127C61.1297 35.3078 58.8381 33.0475 58.8381 28.5272V22.6381H56.6318V17.4491H58.8381V13.1197H65.1372V17.4491H68.3987V22.6381H65.1372V28.6227C65.1372 29.1109 65.2438 29.4611 65.4569 29.6733C65.6914 29.8855 66.0752 29.9917 66.608 29.9917H68.4306ZM74.4707 15.7937C73.3622 15.7937 72.4669 15.4966 71.7848 14.9024C71.124 14.2869 70.7936 13.5229 70.7936 12.6103C70.7936 11.6765 71.124 10.9019 71.7848 10.2865C72.4669 9.67101 73.3622 9.36328 74.4707 9.36328C75.5579 9.36328 76.4319 9.67101 77.0927 10.2865C77.7748 10.9019 78.1158 11.6765 78.1158 12.6103C78.1158 13.5229 77.7748 14.2869 77.0927 14.9024C76.4319 15.4966 75.5579 15.7937 74.4707 15.7937ZM77.5722 17.4491V35.3078H71.3053V17.4491H77.5722ZM92.8762 17.2899C94.944 17.2899 96.5854 17.9796 97.8005 19.3591C99.0155 20.7173 99.623 22.5637 99.623 24.8981V35.3078H93.356V25.7259C93.356 24.7071 93.0894 23.9113 92.5564 23.3383C92.0235 22.7442 91.3095 22.447 90.4142 22.447C89.4761 22.447 88.7408 22.7442 88.2079 23.3383C87.6749 23.9113 87.4086 24.7071 87.4086 25.7259V35.3078H81.1414V17.4491H87.4086V19.9959C87.9628 19.1893 88.7087 18.542 89.6468 18.0539C90.5846 17.5446 91.6612 17.2899 92.8762 17.2899ZM109.681 17.2262C110.896 17.2262 111.951 17.4703 112.846 17.9584C113.763 18.4465 114.466 19.1044 114.957 19.9321V17.4491H121.224V35.1168C121.224 36.7935 120.904 38.3001 120.265 39.6371C119.625 40.9955 118.623 42.0779 117.259 42.8843C115.916 43.6907 114.211 44.0939 112.143 44.0939C109.372 44.0939 107.155 43.4466 105.492 42.152C103.829 40.8576 102.881 39.0961 102.646 36.8676H108.817C108.945 37.4406 109.265 37.8863 109.777 38.2046C110.288 38.523 110.949 38.6823 111.759 38.6823C113.891 38.6823 114.957 37.4938 114.957 35.1168V32.8247C114.466 33.6525 113.763 34.3104 112.846 34.7984C111.951 35.2866 110.896 35.5307 109.681 35.5307C108.252 35.5307 106.952 35.1593 105.78 34.4165C104.629 33.6737 103.712 32.6125 103.03 31.2331C102.369 29.8324 102.039 28.2088 102.039 26.3626C102.039 24.5162 102.369 22.9033 103.03 21.5237C103.712 20.1443 104.629 19.0832 105.78 18.3404C106.952 17.5976 108.252 17.2262 109.681 17.2262ZM114.957 26.3626C114.957 25.2165 114.637 24.3146 113.997 23.6567C113.379 22.9988 112.612 22.6698 111.695 22.6698C110.757 22.6698 109.979 22.9988 109.361 23.6567C108.743 24.2934 108.434 25.1953 108.434 26.3626C108.434 27.5086 108.743 28.4211 109.361 29.1001C109.979 29.758 110.757 30.087 111.695 30.087C112.612 30.087 113.379 29.758 113.997 29.1001C114.637 28.4422 114.957 27.5297 114.957 26.3626Z" fill="#F9438B"/>
<mask id="mask0_2973_32248" style="mask-type:luminance" maskUnits="userSpaceOnUse" x="-1" y="5" width="128" height="45">
<path d="M126.096 5.88477H-0.000366211V49.0386H126.096V5.88477Z" fill="white"/>
<path d="M11.678 30.119H19.3201V35.3078H4.77136V30.3736L11.9019 22.6381H4.83532V17.4491H19.0643V22.3832L11.678 30.119ZM39.0756 26.1716C39.0756 26.6596 39.0436 27.1478 38.9796 27.6359H27.1169C27.1807 28.6121 27.4473 29.3444 27.9162 29.8324C28.4064 30.2992 29.0247 30.5329 29.7708 30.5329C30.8153 30.5329 31.5614 30.0658 32.009 29.1321H38.6919C38.4147 30.363 37.8711 31.4665 37.0612 32.4428C36.2725 33.3979 35.2706 34.1511 34.0555 34.7029C32.8405 35.2549 31.4974 35.5307 30.0266 35.5307C28.2573 35.5307 26.6799 35.1593 25.2942 34.4165C23.93 33.6737 22.8535 32.6125 22.0648 31.2331C21.2973 29.8536 20.9137 28.2302 20.9137 26.3626C20.9137 24.495 21.2973 22.8821 22.0648 21.5237C22.8322 20.1443 23.8981 19.0832 25.2623 18.3404C26.648 17.5976 28.236 17.2262 30.0266 17.2262C31.7959 17.2262 33.3626 17.587 34.727 18.3086C36.0912 19.0301 37.1571 20.07 37.9245 21.4284C38.6919 22.7654 39.0756 24.3464 39.0756 26.1716ZM32.6805 24.6118C32.6805 23.8477 32.4248 23.2534 31.9131 22.8289C31.4016 22.3832 30.7621 22.1604 29.9946 22.1604C29.2272 22.1604 28.5983 22.3727 28.1081 22.7971C27.6177 23.2004 27.298 23.8052 27.1488 24.6118H32.6805ZM47.5879 30.119H55.2299V35.3078H40.6811V30.3736L47.8117 22.6381H40.7452V17.4491H54.9741V22.3832L47.5879 30.119ZM68.4304 29.9917V35.3078H65.7124C61.1294 35.3078 58.8378 33.0475 58.8378 28.5272V22.6381H56.6315V17.4491H58.8378V13.1197H65.1369V17.4491H68.3985V22.6381H65.1369V28.6227C65.1369 29.1109 65.2435 29.4611 65.4567 29.6733C65.6912 29.8855 66.075 29.9917 66.6077 29.9917H68.4304ZM74.4704 15.7937C73.362 15.7937 72.4667 15.4966 71.7846 14.9024C71.1237 14.2869 70.7933 13.5229 70.7933 12.6103C70.7933 11.6765 71.1237 10.9019 71.7846 10.2865C72.4667 9.67101 73.362 9.36328 74.4704 9.36328C75.5576 9.36328 76.4316 9.67101 77.0924 10.2865C77.7745 10.9019 78.1156 11.6765 78.1156 12.6103C78.1156 13.5229 77.7745 14.2869 77.0924 14.9024C76.4316 15.4966 75.5576 15.7937 74.4704 15.7937ZM77.572 17.4491V35.3078H71.305V17.4491H77.572ZM92.876 17.2899C94.9438 17.2899 96.5852 17.9796 97.8002 19.3591C99.0153 20.7173 99.6227 22.5637 99.6227 24.8981V35.3078H93.3557V25.7259C93.3557 24.7071 93.0892 23.9113 92.5562 23.3383C92.0232 22.7442 91.3092 22.447 90.4139 22.447C89.4759 22.447 88.7406 22.7442 88.2076 23.3383C87.6747 23.9113 87.4083 24.7071 87.4083 25.7259V35.3078H81.1411V17.4491H87.4083V19.9959C87.9625 19.1893 88.7085 18.542 89.6465 18.0539C90.5844 17.5446 91.6609 17.2899 92.876 17.2899ZM109.68 17.2262C110.896 17.2262 111.951 17.4703 112.846 17.9584C113.763 18.4465 114.466 19.1044 114.956 19.9321V17.4491H121.224V35.1168C121.224 36.7935 120.904 38.3001 120.264 39.6371C119.625 40.9955 118.623 42.0779 117.259 42.8843C115.916 43.6907 114.21 44.0939 112.143 44.0939C109.371 44.0939 107.154 43.4466 105.492 42.152C103.829 40.8576 102.881 39.0961 102.646 36.8676H108.817C108.945 37.4406 109.265 37.8863 109.776 38.2046C110.288 38.523 110.949 38.6823 111.759 38.6823C113.891 38.6823 114.956 37.4938 114.956 35.1168V32.8247C114.466 33.6525 113.763 34.3104 112.846 34.7984C111.951 35.2866 110.896 35.5307 109.68 35.5307C108.252 35.5307 106.952 35.1593 105.78 34.4165C104.628 33.6737 103.712 32.6125 103.03 31.2331C102.369 29.8324 102.038 28.2088 102.038 26.3626C102.038 24.5162 102.369 22.9033 103.03 21.5237C103.712 20.1443 104.628 19.0832 105.78 18.3404C106.952 17.5976 108.252 17.2262 109.68 17.2262ZM114.956 26.3626C114.956 25.2165 114.637 24.3146 113.997 23.6567C113.379 22.9988 112.612 22.6698 111.695 22.6698C110.757 22.6698 109.979 22.9988 109.361 23.6567C108.743 24.2934 108.434 25.1953 108.434 26.3626C108.434 27.5086 108.743 28.4211 109.361 29.1001C109.979 29.758 110.757 30.087 111.695 30.087C112.612 30.087 113.379 29.758 113.997 29.1001C114.637 28.4422 114.956 27.5297 114.956 26.3626Z" fill="black"/>
</mask>
<g mask="url(#mask0_2973_32248)">
<path d="M11.6782 30.1188L9.36068 27.9254L4.22678 33.3021H11.6782V30.1188ZM19.3202 30.1188H22.5179V26.9354H19.3202V30.1188ZM19.3202 35.3076V38.491H22.5179V35.3076H19.3202ZM4.7715 35.3076H1.57397V38.491H4.7715V35.3076ZM4.7715 30.3734L2.41565 28.221L1.57397 29.1341V30.3734H4.7715ZM11.902 22.6378L14.2579 24.7902L19.1762 19.4544H11.902V22.6378ZM4.83546 22.6378H1.63793V25.8212H4.83546V22.6378ZM4.83546 17.4488V14.2655H1.63793V17.4488H4.83546ZM19.0645 17.4488H22.2619V14.2655H19.0645V17.4488ZM19.0645 22.383L21.382 24.5764L22.2619 23.6547V22.383H19.0645ZM11.6782 30.1188V33.3021H19.3202V30.1188V26.9354H11.6782V30.1188ZM19.3202 30.1188H16.1227V35.3076H19.3202H22.5179V30.1188H19.3202ZM19.3202 35.3076V32.1242H4.7715V35.3076V38.491H19.3202V35.3076ZM4.7715 35.3076H7.96903V30.3734H4.7715H1.57397V35.3076H4.7715ZM4.7715 30.3734L7.12738 32.5258L14.2579 24.7902L11.902 22.6378L9.54612 20.4854L2.41565 28.221L4.7715 30.3734ZM11.902 22.6378V19.4544H4.83546V22.6378V25.8212H11.902V22.6378ZM4.83546 22.6378H8.03298V17.4488H4.83546H1.63793V22.6378H4.83546ZM4.83546 17.4488V20.6322H19.0645V17.4488V14.2655H4.83546V17.4488ZM19.0645 17.4488H15.8669V22.383H19.0645H22.2619V17.4488H19.0645ZM19.0645 22.383L16.747 20.1898L9.36068 27.9254L11.6782 30.1188L13.9957 32.3119L21.382 24.5764L19.0645 22.383ZM38.9797 27.6356V30.819H41.7874L42.1505 28.0474L38.9797 27.6356ZM27.117 27.6356V24.4523H23.7041L23.9262 27.8428L27.117 27.6356ZM27.9164 29.8322L25.6056 32.0326L25.6549 32.0838L25.7061 32.1327L27.9164 29.8322ZM32.0092 29.1319V25.9485H29.9922L29.1235 27.7606L32.0092 29.1319ZM38.6921 29.1319L41.8122 29.8281L42.6856 25.9485H38.6921V29.1319ZM37.0613 32.4426L34.5961 30.4151L34.5914 30.4208L37.0613 32.4426ZM25.2943 34.4163L23.7601 37.2093L23.7784 37.2191L25.2943 34.4163ZM22.0649 31.2329L19.2677 32.7753L19.2768 32.7915L19.286 32.8076L22.0649 31.2329ZM22.0649 21.5235L24.8518 23.0843L24.8621 23.0658L22.0649 21.5235ZM25.2624 18.3402L23.7465 15.5373L23.7282 15.5472L25.2624 18.3402ZM37.9247 21.4282L35.1377 22.9888L35.1484 23.0074L37.9247 21.4282ZM32.6806 24.6115V27.7949H35.8782V24.6115H32.6806ZM31.9132 22.8287L29.8076 25.2245L29.8368 25.2498L29.8663 25.2743L31.9132 22.8287ZM28.1083 22.7969L30.1447 25.2512L30.1758 25.2255L30.2064 25.1992L28.1083 22.7969ZM27.1489 24.6115L24.0044 24.0347L23.3085 27.7949H27.1489V24.6115ZM39.0757 26.1714H35.8782C35.8782 26.5205 35.8553 26.8712 35.8092 27.2239L38.9797 27.6356L42.1505 28.0474C42.2322 27.424 42.2732 26.7983 42.2732 26.1714H39.0757ZM38.9797 27.6356V24.4523H27.117V27.6356V30.819H38.9797V27.6356ZM27.117 27.6356L23.9262 27.8428C24.0176 29.2386 24.4276 30.8065 25.6056 32.0326L27.9164 29.8322L30.2271 27.6317C30.3433 27.7527 30.3758 27.8457 30.3711 27.8326C30.3628 27.8102 30.3248 27.69 30.3077 27.4285L27.117 27.6356ZM27.9164 29.8322L25.7061 32.1327C26.8532 33.225 28.2909 33.716 29.771 33.716V30.5326V27.3493C29.7359 27.3493 29.7851 27.3445 29.8817 27.381C29.9837 27.4195 30.0704 27.4783 30.1266 27.5317L27.9164 29.8322ZM29.771 30.5326V33.716C30.7823 33.716 31.8449 33.485 32.8156 32.8775C33.7871 32.2696 34.4578 31.4149 34.8948 30.503L32.0092 29.1319L29.1235 27.7606C29.1131 27.7826 29.1868 27.6284 29.4122 27.4872C29.6368 27.3467 29.8041 27.3493 29.771 27.3493V30.5326ZM32.0092 29.1319V32.3153H38.6921V29.1319V25.9485H32.0092V29.1319ZM38.6921 29.1319L35.572 28.4356C35.4053 29.1756 35.0869 29.8235 34.5961 30.4151L37.0613 32.4426L39.5265 34.47C40.6556 33.1091 41.4244 31.5499 41.8122 29.8281L38.6921 29.1319ZM37.0613 32.4426L34.5914 30.4208C34.1347 30.9738 33.5349 31.4402 32.7287 31.8065L34.0557 34.7027L35.3826 37.5991C37.0065 36.8617 38.4103 35.8213 39.5312 34.4643L37.0613 32.4426ZM34.0557 34.7027L32.7287 31.8065C31.9708 32.1507 31.0865 32.3471 30.0267 32.3471V35.5304V38.7138C31.9087 38.7138 33.7103 38.3584 35.3826 37.5991L34.0557 34.7027ZM30.0267 35.5304V32.3471C28.7198 32.3471 27.6746 32.0768 26.8103 31.6134L25.2943 34.4163L23.7784 37.2191C25.6854 38.2415 27.795 38.7138 30.0267 38.7138V35.5304ZM25.2943 34.4163L26.8286 31.6233C25.9983 31.1713 25.3469 30.5381 24.8437 29.658L22.0649 31.2329L19.286 32.8076C20.3602 34.6866 21.862 36.1758 23.7601 37.2093L25.2943 34.4163ZM22.0649 31.2329L24.8621 29.6905C24.4018 28.8632 24.1114 27.79 24.1114 26.3624H20.9139H17.7162C17.7162 28.67 18.1932 30.8437 19.2677 32.7753L22.0649 31.2329ZM20.9139 26.3624H24.1114C24.1114 24.933 24.4024 23.8797 24.8518 23.0843L22.0649 21.5235L19.278 19.9629C18.1926 21.884 17.7162 24.0564 17.7162 26.3624H20.9139ZM22.0649 21.5235L24.8621 23.0658C25.3418 22.2036 25.9743 21.581 26.7967 21.1331L25.2624 18.3402L23.7282 15.5472C21.8222 16.585 20.3228 18.0846 19.2677 19.9813L22.0649 21.5235ZM25.2624 18.3402L26.7783 21.1431C27.6372 20.6828 28.6915 20.4093 30.0267 20.4093V17.226V14.0426C27.7808 14.0426 25.6588 14.5121 23.7465 15.5373L25.2624 18.3402ZM30.0267 17.226V20.4093C31.3495 20.4093 32.3879 20.6759 33.227 21.1196L34.7271 18.3084L36.2273 15.4971C34.3378 14.4977 32.2425 14.0426 30.0267 14.0426V17.226ZM34.7271 18.3084L33.227 21.1196C34.0435 21.5515 34.6661 22.1539 35.1377 22.9888L37.9247 21.4282L40.7116 19.8674C39.6484 17.9858 38.1392 16.5084 36.2273 15.4971L34.7271 18.3084ZM37.9247 21.4282L35.1484 23.0074C35.5925 23.7814 35.8782 24.7971 35.8782 26.1714H39.0757H42.2732C42.2732 23.8952 41.7915 21.7489 40.7008 19.8487L37.9247 21.4282ZM32.6806 24.6115H35.8782C35.8782 23.0635 35.3164 21.5084 33.9603 20.3832L31.9132 22.8287L29.8663 25.2743C29.7448 25.1735 29.6259 25.0235 29.5499 24.8467C29.479 24.6824 29.4831 24.5835 29.4831 24.6115H32.6806ZM31.9132 22.8287L34.0188 20.4331C32.8487 19.4138 31.4299 18.9769 29.9948 18.9769V22.1602V25.3436C30.0659 25.3436 30.0553 25.3534 29.9936 25.332C29.964 25.3218 29.9298 25.3065 29.8945 25.2861C29.859 25.2655 29.8299 25.2437 29.8076 25.2245L31.9132 22.8287ZM29.9948 22.1602V18.9769C28.6034 18.9769 27.1844 19.3781 26.0101 20.3948L28.1083 22.7969L30.2064 25.1992C30.1719 25.2288 30.1319 25.2575 30.0884 25.2824C30.0448 25.3071 30.0052 25.3238 29.9741 25.3344C29.9108 25.3556 29.9069 25.3436 29.9948 25.3436V22.1602ZM28.1083 22.7969L26.0718 20.3426C24.8489 21.3485 24.2489 22.7134 24.0044 24.0347L27.1489 24.6115L30.2937 25.1882C30.3211 25.0399 30.3473 25.0035 30.3303 25.0356C30.3213 25.0527 30.3021 25.0851 30.2692 25.1259C30.2361 25.167 30.1944 25.2102 30.1447 25.2512L28.1083 22.7969ZM27.1489 24.6115V27.7949H32.6806V24.6115V21.4282H27.1489V24.6115ZM47.588 30.1188L45.2704 27.9254L40.1365 33.3021H47.588V30.1188ZM55.23 30.1188H58.4276V26.9354H55.23V30.1188ZM55.23 35.3076V38.491H58.4276V35.3076H55.23ZM40.6813 35.3076H37.4837V38.491H40.6813V35.3076ZM40.6813 30.3734L38.3254 28.221L37.4837 29.1341V30.3734H40.6813ZM47.8118 22.6378L50.1676 24.7902L55.086 19.4544H47.8118V22.6378ZM40.7453 22.6378H37.5478V25.8212H40.7453V22.6378ZM40.7453 17.4488V14.2655H37.5478V17.4488H40.7453ZM54.9743 17.4488H58.1718V14.2655H54.9743V17.4488ZM54.9743 22.383L57.2917 24.5764L58.1718 23.6547V22.383H54.9743ZM47.588 30.1188V33.3021H55.23V30.1188V26.9354H47.588V30.1188ZM55.23 30.1188H52.0325V35.3076H55.23H58.4276V30.1188H55.23ZM55.23 35.3076V32.1242H40.6813V35.3076V38.491H55.23V35.3076ZM40.6813 35.3076H43.8788V30.3734H40.6813H37.4837V35.3076H40.6813ZM40.6813 30.3734L43.0371 32.5258L50.1676 24.7902L47.8118 22.6378L45.4558 20.4854L38.3254 28.221L40.6813 30.3734ZM47.8118 22.6378V19.4544H40.7453V22.6378V25.8212H47.8118V22.6378ZM40.7453 22.6378H43.9428V17.4488H40.7453H37.5478V22.6378H40.7453ZM40.7453 17.4488V20.6322H54.9743V17.4488V14.2655H40.7453V17.4488ZM54.9743 17.4488H51.7768V22.383H54.9743H58.1718V17.4488H54.9743ZM54.9743 22.383L52.6567 20.1898L45.2704 27.9254L47.588 30.1188L49.9054 32.3119L57.2917 24.5764L54.9743 22.383ZM68.4305 29.9914H71.6281V26.8081H68.4305V29.9914ZM68.4305 35.3076V38.491H71.6281V35.3076H68.4305ZM58.838 22.6378H62.0355V19.4544H58.838V22.6378ZM56.6317 22.6378H53.4341V25.8212H56.6317V22.6378ZM56.6317 17.4488V14.2655H53.4341V17.4488H56.6317ZM58.838 17.4488V20.6322H62.0355V17.4488H58.838ZM58.838 13.1195V9.93607H55.6404V13.1195H58.838ZM65.1371 13.1195H68.3346V9.93607H65.1371V13.1195ZM65.1371 17.4488H61.9395V20.6322H65.1371V17.4488ZM68.3986 17.4488H71.5962V14.2655H68.3986V17.4488ZM68.3986 22.6378V25.8212H71.5962V22.6378H68.3986ZM65.1371 22.6378V19.4544H61.9395V22.6378H65.1371ZM65.4568 29.6731L63.1958 31.924L63.2496 31.9775L63.3059 32.0285L65.4568 29.6731ZM68.4305 29.9914H65.233V35.3076H68.4305H71.6281V29.9914H68.4305ZM68.4305 35.3076V32.1242H65.7126V35.3076V38.491H68.4305V35.3076ZM65.7126 35.3076V32.1242C63.9064 32.1242 63.1406 31.6801 62.807 31.351C62.479 31.0273 62.0355 30.289 62.0355 28.527H58.838H55.6404C55.6404 31.2855 56.3428 33.9375 58.3062 35.8739C60.2642 37.805 62.9357 38.491 65.7126 38.491V35.3076ZM58.838 28.527H62.0355V22.6378H58.838H55.6404V28.527H58.838ZM58.838 22.6378V19.4544H56.6317V22.6378V25.8212H58.838V22.6378ZM56.6317 22.6378H59.8292V17.4488H56.6317H53.4341V22.6378H56.6317ZM56.6317 17.4488V20.6322H58.838V17.4488V14.2655H56.6317V17.4488ZM58.838 17.4488H62.0355V13.1195H58.838H55.6404V17.4488H58.838ZM58.838 13.1195V16.3028H65.1371V13.1195V9.93607H58.838V13.1195ZM65.1371 13.1195H61.9395V17.4488H65.1371H68.3346V13.1195H65.1371ZM65.1371 17.4488V20.6322H68.3986V17.4488V14.2655H65.1371V17.4488ZM68.3986 17.4488H65.2011V22.6378H68.3986H71.5962V17.4488H68.3986ZM68.3986 22.6378V19.4544H65.1371V22.6378V25.8212H68.3986V22.6378ZM65.1371 22.6378H61.9395V28.6225H65.1371H68.3346V22.6378H65.1371ZM65.1371 28.6225H61.9395C61.9395 29.4495 62.1005 30.8333 63.1958 31.924L65.4568 29.6731L67.7179 27.422C68.0564 27.759 68.2109 28.1105 68.2771 28.3281C68.3395 28.533 68.3346 28.6513 68.3346 28.6225H65.1371ZM65.4568 29.6731L63.3059 32.0285C64.4179 33.035 65.7833 33.1748 66.6079 33.1748V29.9914V26.8081C66.5397 26.8081 66.6136 26.7996 66.7763 26.8446C66.9454 26.8912 67.2724 27.014 67.6078 27.3175L65.4568 29.6731ZM66.6079 29.9914V33.1748H68.4305V29.9914V26.8081H66.6079V29.9914ZM71.7847 14.9021L69.6003 17.2269L69.6391 17.263L69.6791 17.2979L71.7847 14.9021ZM71.7847 10.2862L69.6375 7.9274L69.6188 7.94431L69.6003 7.96151L71.7847 10.2862ZM77.0926 10.2862L74.9082 12.611L74.9267 12.6282L74.9454 12.6451L77.0926 10.2862ZM77.0926 14.9021L79.2358 17.2645L79.2398 17.261L77.0926 14.9021ZM77.5721 17.4488H80.7697V14.2655H77.5721V17.4488ZM77.5721 35.3076V38.491H80.7697V35.3076H77.5721ZM71.3051 35.3076H68.1076V38.491H71.3051V35.3076ZM71.3051 17.4488V14.2655H68.1076V17.4488H71.3051ZM74.4706 15.7935V12.6101C74.2016 12.6101 74.0493 12.574 73.979 12.5506C73.9171 12.5301 73.8986 12.5137 73.8903 12.5064L71.7847 14.9021L69.6791 17.2979C71.0667 18.5067 72.7677 18.9769 74.4706 18.9769V15.7935ZM71.7847 14.9021L73.9691 12.5774C73.9484 12.5581 73.9455 12.5519 73.9516 12.5605C73.9546 12.5645 73.9589 12.571 73.9638 12.5797C73.9687 12.5884 73.9737 12.5982 73.9782 12.6086C73.9827 12.6191 73.9861 12.6288 73.9888 12.6372C73.9914 12.6455 73.9926 12.6513 73.9932 12.6538C73.9942 12.6593 73.991 12.6464 73.991 12.6101H70.7935H67.5959C67.5959 14.3908 68.2838 16.0007 69.6003 17.2269L71.7847 14.9021ZM70.7935 12.6101H73.991C73.991 12.564 73.9949 12.5428 73.9953 12.5415C73.9955 12.5406 73.9949 12.5436 73.993 12.5497C73.9912 12.5558 73.9884 12.5638 73.9845 12.5731C73.9804 12.5824 73.9758 12.5916 73.9711 12.6003C73.9662 12.6089 73.9616 12.6157 73.9583 12.6205C73.951 12.6307 73.952 12.627 73.9691 12.611L71.7847 10.2862L69.6003 7.96151C68.267 9.20326 67.5959 10.8315 67.5959 12.6101H70.7935ZM71.7847 10.2862L73.9319 12.6451C73.9437 12.6345 73.9599 12.6207 74.0113 12.603C74.0716 12.5822 74.2125 12.5464 74.4706 12.5464V9.36307V6.17969C72.7391 6.17969 71.023 6.67731 69.6375 7.9274L71.7847 10.2862ZM74.4706 9.36307V12.5464C74.7123 12.5464 74.8343 12.5806 74.8755 12.5951C74.9072 12.6063 74.9078 12.6105 74.9082 12.611L77.0926 10.2862L79.277 7.96151C77.9085 6.68696 76.1959 6.17969 74.4706 6.17969V9.36307ZM77.0926 10.2862L74.9454 12.6451C74.9663 12.6639 74.9684 12.6693 74.9612 12.6594C74.9576 12.6547 74.9529 12.6475 74.9474 12.638C74.9418 12.6285 74.9363 12.618 74.9314 12.6068C74.9267 12.5957 74.9229 12.5855 74.9202 12.5768C74.9174 12.5682 74.916 12.5624 74.9156 12.5602C74.9147 12.5553 74.9182 12.5701 74.9182 12.6101H78.1157H81.3133C81.3133 10.797 80.6049 9.15915 79.2398 7.9274L77.0926 10.2862ZM78.1157 12.6101H74.9182C74.9182 12.6401 74.9156 12.6466 74.918 12.6348C74.9206 12.6222 74.9265 12.6005 74.9381 12.5747C74.9495 12.5489 74.9613 12.5306 74.9681 12.5216C74.9742 12.5133 74.9698 12.5213 74.9454 12.5433L77.0926 14.9021L79.2398 17.261C80.5874 16.0451 81.3133 14.4257 81.3133 12.6101H78.1157ZM77.0926 14.9021L74.9493 12.5397C74.9472 12.5416 74.9466 12.5426 74.9454 12.5433C74.944 12.5441 74.9338 12.5494 74.9082 12.5581C74.8569 12.5755 74.7235 12.6101 74.4706 12.6101V15.7935V18.9769C76.1664 18.9769 77.8641 18.498 79.2358 17.2645L77.0926 14.9021ZM77.5721 17.4488H74.3746V35.3076H77.5721H80.7697V17.4488H77.5721ZM77.5721 35.3076V32.1242H71.3051V35.3076V38.491H77.5721V35.3076ZM71.3051 35.3076H74.5027V17.4488H71.3051H68.1076V35.3076H71.3051ZM71.3051 17.4488V20.6322H77.5721V17.4488V14.2655H71.3051V17.4488ZM97.8004 19.3589L95.3963 21.4578L95.4126 21.476L97.8004 19.3589ZM99.6229 35.3076V38.491H102.82V35.3076H99.6229ZM93.3559 35.3076H90.1583V38.491H93.3559V35.3076ZM92.5563 23.3381L90.1711 25.4583L90.1905 25.4797L90.2102 25.5009L92.5563 23.3381ZM88.2078 23.3381L90.554 25.5009L90.5737 25.4797L90.593 25.4583L88.2078 23.3381ZM87.4084 35.3076V38.491H90.606V35.3076H87.4084ZM81.1413 35.3076H77.9437V38.491H81.1413V35.3076ZM81.1413 17.4488V14.2655H77.9437V17.4488H81.1413ZM87.4084 17.4488H90.606V14.2655H87.4084V17.4488ZM87.4084 19.9956H84.2109V30.2857L90.0474 21.7932L87.4084 19.9956ZM89.6467 18.0537L91.1279 20.8748L91.1529 20.8619L91.1777 20.8483L89.6467 18.0537ZM92.8761 17.2897V20.4731C94.1485 20.4731 94.8665 20.8562 95.3963 21.4578L97.8004 19.3589L100.204 17.26C98.3042 15.1026 95.7393 14.1063 92.8761 14.1063V17.2897ZM97.8004 19.3589L95.4126 21.476C95.9716 22.1012 96.4253 23.1165 96.4253 24.8979H99.6229H102.82C102.82 22.0105 102.059 19.3331 100.188 17.2416L97.8004 19.3589ZM99.6229 24.8979H96.4253V35.3076H99.6229H102.82V24.8979H99.6229ZM99.6229 35.3076V32.1242H93.3559V35.3076V38.491H99.6229V35.3076ZM93.3559 35.3076H96.5534V25.7257H93.3559H90.1583V35.3076H93.3559ZM93.3559 25.7257H96.5534C96.5534 24.1563 96.1331 22.4984 94.9025 21.1753L92.5563 23.3381L90.2102 25.5009C90.1816 25.4701 90.1583 25.4381 90.1418 25.4097C90.1256 25.3818 90.1209 25.3667 90.1225 25.3714C90.1266 25.3838 90.1583 25.4876 90.1583 25.7257H93.3559ZM92.5563 23.3381L94.9415 21.2179C93.7261 19.8625 92.0996 19.2634 90.4141 19.2634V22.4468V25.6302C90.5041 25.6302 90.4781 25.6441 90.3883 25.6068C90.3453 25.589 90.3002 25.5643 90.2578 25.534C90.2159 25.504 90.1873 25.4762 90.1711 25.4583L92.5563 23.3381ZM90.4141 22.4468V19.2634C88.7376 19.2634 87.0682 19.8291 85.8226 21.2179L88.2078 23.3381L90.593 25.4583C90.5695 25.4842 90.535 25.5168 90.4893 25.5488C90.4436 25.5809 90.3989 25.6041 90.3613 25.6194C90.2844 25.6504 90.2836 25.6302 90.4141 25.6302V22.4468ZM88.2078 23.3381L85.8616 21.1753C84.6312 22.4984 84.2109 24.1563 84.2109 25.7257H87.4084H90.606C90.606 25.4876 90.6375 25.3838 90.6416 25.3714C90.6432 25.3667 90.6385 25.3818 90.6223 25.4097C90.6058 25.4381 90.5827 25.4701 90.554 25.5009L88.2078 23.3381ZM87.4084 25.7257H84.2109V35.3076H87.4084H90.606V25.7257H87.4084ZM87.4084 35.3076V32.1242H81.1413V35.3076V38.491H87.4084V35.3076ZM81.1413 35.3076H84.3388V17.4488H81.1413H77.9437V35.3076H81.1413ZM81.1413 17.4488V20.6322H87.4084V17.4488V14.2655H81.1413V17.4488ZM87.4084 17.4488H84.2109V19.9956H87.4084H90.606V17.4488H87.4084ZM87.4084 19.9956L90.0474 21.7932C90.2829 21.4505 90.617 21.1408 91.1279 20.8748L89.6467 18.0537L88.1654 15.2325C86.8004 15.9428 85.6423 16.9277 84.7695 18.198L87.4084 19.9956ZM89.6467 18.0537L91.1777 20.8483C91.5848 20.6273 92.1217 20.4731 92.8761 20.4731V17.2897V14.1063C91.2004 14.1063 89.5844 14.4614 88.1156 15.259L89.6467 18.0537ZM112.846 17.9582L111.31 20.7502L111.324 20.7579L111.338 20.7652L112.846 17.9582ZM114.957 19.9319L112.202 21.549L118.154 31.5964V19.9319H114.957ZM114.957 17.4488V14.2655H111.759V17.4488H114.957ZM121.224 17.4488H124.421V14.2655H121.224V17.4488ZM120.264 39.6369L117.377 38.2684L117.369 38.2858L120.264 39.6369ZM117.259 42.8841L115.626 40.1467L115.607 40.1581L117.259 42.8841ZM102.646 36.8674V33.684H99.096L99.466 37.1991L102.646 36.8674ZM108.817 36.8674L111.939 36.177L111.382 33.684H108.817V36.8674ZM114.957 32.8245H118.154V21.16L112.202 31.2074L114.957 32.8245ZM112.846 34.7982L111.338 31.9912L111.324 31.9987L111.31 32.0061L112.846 34.7982ZM105.78 34.4163L104.041 37.0877L104.063 37.102L105.78 34.4163ZM103.03 31.2329L100.136 32.5862L100.148 32.6127L100.161 32.6389L103.03 31.2329ZM103.03 21.5235L100.161 20.1175L100.152 20.1353L100.144 20.1532L103.03 21.5235ZM105.78 18.3402L104.063 15.6544L104.041 15.6688L105.78 18.3402ZM113.997 23.6565L111.662 25.8312L111.681 25.8508L111.7 25.8703L113.997 23.6565ZM109.361 23.6565L111.66 25.8689L111.678 25.8503L111.696 25.8312L109.361 23.6565ZM109.361 29.0999L106.992 31.2378L107.009 31.2564L107.026 31.2747L109.361 29.0999ZM113.997 29.0999L111.7 26.8861L111.681 26.9056L111.662 26.9254L113.997 29.0999ZM109.681 17.226V20.4093C110.461 20.4093 110.968 20.5637 111.31 20.7502L112.846 17.9582L114.382 15.1661C112.934 14.3765 111.331 14.0426 109.681 14.0426V17.226ZM112.846 17.9582L111.338 20.7652C111.779 21 112.033 21.263 112.202 21.549L114.957 19.9319L117.711 18.3148C116.9 16.9454 115.747 15.8926 114.354 15.1511L112.846 17.9582ZM114.957 19.9319H118.154V17.4488H114.957H111.759V19.9319H114.957ZM114.957 17.4488V20.6322H121.224V17.4488V14.2655H114.957V17.4488ZM121.224 17.4488H118.026V35.1166H121.224H124.421V17.4488H121.224ZM121.224 35.1166H118.026C118.026 36.3825 117.787 37.4121 117.377 38.2684L120.264 39.6369L123.151 41.0057C124.021 39.1877 124.421 37.2038 124.421 35.1166H121.224ZM120.264 39.6369L117.369 38.2858C117.016 39.0351 116.471 39.6477 115.626 40.1467L117.259 42.8841L118.891 45.6214C120.776 44.5074 122.234 42.9555 123.16 40.9882L120.264 39.6369ZM117.259 42.8841L115.607 40.1581C114.897 40.5843 113.809 40.9104 112.143 40.9104V44.0937V47.2771C114.612 47.2771 116.934 46.7967 118.91 45.61L117.259 42.8841ZM112.143 44.0937V40.9104C109.861 40.9104 108.408 40.3809 107.462 39.6442L105.492 42.1518L103.522 44.6594C105.901 46.5119 108.882 47.2771 112.143 47.2771V44.0937ZM105.492 42.1518L107.462 39.6442C106.531 38.9196 105.977 37.9688 105.826 36.5357L102.646 36.8674L99.466 37.1991C99.7842 40.2228 101.128 42.795 103.522 44.6594L105.492 42.1518ZM102.646 36.8674V40.0508H108.817V36.8674V33.684H102.646V36.8674ZM108.817 36.8674L105.696 37.5581C106.015 38.9855 106.863 40.1452 108.082 40.9041L109.777 38.2044L111.471 35.5049C111.536 35.5455 111.649 35.633 111.755 35.7811C111.862 35.9306 111.916 36.0763 111.939 36.177L108.817 36.8674ZM109.777 38.2044L108.082 40.9041C109.248 41.6295 110.549 41.8654 111.759 41.8654V38.682V35.4987C111.349 35.4987 111.329 35.4163 111.471 35.5049L109.777 38.2044ZM111.759 38.682V41.8654C113.417 41.8654 115.219 41.3864 116.542 39.9108C117.804 38.5039 118.154 36.7125 118.154 35.1166H114.957H111.759C111.759 35.4841 111.717 35.686 111.692 35.7684C111.671 35.84 111.677 35.7764 111.772 35.6705C111.817 35.6201 111.87 35.5748 111.924 35.5385C111.978 35.5024 112.02 35.4841 112.04 35.4769C112.074 35.4639 112.002 35.4987 111.759 35.4987V38.682ZM114.957 35.1166H118.154V32.8245H114.957H111.759V35.1166H114.957ZM114.957 32.8245L112.202 31.2074C112.033 31.4934 111.779 31.7564 111.338 31.9912L112.846 34.7982L114.354 37.6054C115.747 36.8639 116.9 35.8109 117.711 34.4416L114.957 32.8245ZM112.846 34.7982L111.31 32.0061C110.968 32.1929 110.461 32.3471 109.681 32.3471V35.5304V38.7138C111.331 38.7138 112.934 38.38 114.382 37.5904L112.846 34.7982ZM109.681 35.5304V32.3471C108.843 32.3471 108.141 32.1389 107.496 31.7305L105.78 34.4163L104.063 37.102C105.763 38.1791 107.662 38.7138 109.681 38.7138V35.5304ZM105.78 34.4163L107.519 31.7449C106.911 31.3526 106.359 30.7572 105.899 29.8269L103.03 31.2329L100.161 32.6389C101.065 34.4675 102.346 35.9945 104.041 37.0877L105.78 34.4163ZM103.03 31.2329L105.924 29.8794C105.498 28.9762 105.236 27.83 105.236 26.3624H102.039H98.8411C98.8411 28.5874 99.2402 30.6882 100.136 32.5862L103.03 31.2329ZM102.039 26.3624H105.236C105.236 24.893 105.498 23.7655 105.916 22.894L103.03 21.5235L100.144 20.1532C99.2396 22.0406 98.8411 24.139 98.8411 26.3624H102.039ZM103.03 21.5235L105.899 22.9297C106.359 21.9994 106.911 21.4038 107.519 21.0115L105.78 18.3402L104.041 15.6688C102.346 16.7621 101.065 18.2889 100.161 20.1175L103.03 21.5235ZM105.78 18.3402L107.496 21.0258C108.141 20.6175 108.843 20.4093 109.681 20.4093V17.226V14.0426C107.662 14.0426 105.763 14.5772 104.063 15.6544L105.78 18.3402ZM114.957 26.3624H118.154C118.154 24.6086 117.648 22.8346 116.295 21.4427L113.997 23.6565L111.7 25.8703C111.685 25.8555 111.688 25.8467 111.702 25.8858C111.719 25.9366 111.759 26.0807 111.759 26.3624H114.957ZM113.997 23.6565L116.332 21.4817C115.101 20.171 113.484 19.4862 111.695 19.4862V22.6696V25.853C111.732 25.853 111.744 25.8561 111.739 25.8552C111.736 25.8546 111.731 25.8534 111.722 25.8508C111.714 25.8481 111.704 25.8448 111.694 25.8402C111.683 25.8357 111.673 25.8308 111.664 25.8259C111.656 25.8208 111.649 25.8167 111.645 25.8138C111.637 25.8077 111.643 25.8106 111.662 25.8312L113.997 23.6565ZM111.695 22.6696V19.4862C109.909 19.4862 108.273 20.1543 107.026 21.4817L109.361 23.6565L111.696 25.8312C111.712 25.814 111.716 25.8132 111.705 25.8204C111.701 25.8238 111.694 25.8283 111.685 25.8332C111.676 25.8379 111.667 25.8424 111.658 25.8465C111.649 25.8504 111.641 25.8532 111.634 25.855C111.628 25.8569 111.625 25.8573 111.626 25.8573C111.627 25.8569 111.649 25.853 111.695 25.853V22.6696ZM109.361 23.6565L107.062 21.4439C105.702 22.844 105.236 24.6406 105.236 26.3624H108.434H111.631C111.631 26.0527 111.673 25.8936 111.692 25.8383C111.706 25.7963 111.702 25.8253 111.66 25.8689L109.361 23.6565ZM108.434 26.3624H105.236C105.236 28.0927 105.716 29.8365 106.992 31.2378L109.361 29.0999L111.73 26.9622C111.727 26.9589 111.725 26.956 111.721 26.9497C111.717 26.9432 111.707 26.925 111.695 26.8891C111.671 26.8159 111.631 26.6533 111.631 26.3624H108.434ZM109.361 29.0999L107.026 31.2747C108.273 32.6023 109.909 33.2702 111.695 33.2702V30.0868V26.9034C111.649 26.9034 111.627 26.8995 111.626 26.8993C111.625 26.8991 111.628 26.8997 111.634 26.9014C111.641 26.9032 111.649 26.9061 111.658 26.9101C111.667 26.914 111.676 26.9185 111.685 26.9234C111.694 26.9281 111.701 26.9326 111.705 26.936C111.716 26.9432 111.712 26.9424 111.696 26.9254L109.361 29.0999ZM111.695 30.0868V33.2702C113.484 33.2702 115.101 32.5856 116.332 31.2747L113.997 29.0999L111.662 26.9254C111.643 26.9458 111.637 26.9489 111.645 26.9426C111.649 26.9399 111.656 26.9356 111.664 26.9307C111.673 26.9258 111.683 26.9209 111.694 26.9163C111.704 26.9118 111.714 26.9083 111.722 26.9058C111.731 26.9032 111.736 26.9018 111.739 26.9014C111.744 26.9003 111.732 26.9034 111.695 26.9034V30.0868ZM113.997 29.0999L116.295 31.3137C117.659 29.9112 118.154 28.1186 118.154 26.3624H114.957H111.759C111.759 26.6608 111.718 26.8161 111.698 26.8736C111.682 26.9189 111.679 26.9073 111.7 26.8861L113.997 29.0999Z" fill="#6802A4"/>
</g>
<path d="M114.134 24.8066H110.334V28.5276H114.134V24.8066Z" fill="#7700BD"/>
<path d="M58.4062 24.8066H54.6064V28.5276H58.4062V24.8066Z" fill="#7700BD"/>
<path d="M74.7679 7.09956C77.543 6.87147 79.9909 8.89511 80.1944 11.6654C80.3976 14.4355 78.275 16.8338 75.5001 17.0626C72.7248 17.2911 70.2758 15.269 70.0718 12.4988C69.8683 9.72824 71.9924 7.32804 74.7679 7.09956Z" fill="#F9438B" stroke="#6802A4" stroke-width="1.47141"/>
</g>
<defs>
<clipPath id="clip0_2973_32248">
<rect width="128.067" height="51" fill="white"/>
</clipPath>
</defs>
</svg>
